<?xml version="1.0" encoding="UTF-8"?>
<svg id="Capa_2" data-name="Capa 2" xmlns="http://www.w3.org/2000/svg" viewBox="0 0 67.04 67.04">
  <defs>
    <style>
      .cls-1 {
        stroke-width: 0px;
      }
    </style>
  </defs>
  <g id="Capa_1-2" data-name="Capa 1">
    <path class="cls-1" d="M33.52,0C15.04,0,0,15.04,0,33.52s15.04,33.52,33.52,33.52,33.52-15.04,33.52-33.52S52,0,33.52,0ZM33.52,60.34c-14.79,0-26.82-12.03-26.82-26.82S18.73,6.7,33.52,6.7s26.82,12.03,26.82,26.82-12.03,26.82-26.82,26.82Z"/>
    <path class="cls-1" d="M43,43c-1.85,1.86-4.2,3.13-6.77,3.65-1.79.36-3.63.36-5.42,0-.86-.18-1.7-.44-2.51-.78-.8-.34-1.56-.75-2.28-1.23-1.43-.97-2.66-2.2-3.63-3.63l-5.56,3.74c.72,1.07,1.55,2.07,2.46,2.98,7.83,7.86,20.54,7.88,28.4.05.01-.01.03-.03.04-.04.91-.91,1.74-1.91,2.46-2.99l-5.56-3.74c-.48.71-1.03,1.37-1.64,1.98Z"/>
    <circle class="cls-1" cx="21.79" cy="28.49" r="5.03"/>
    <path class="cls-1" d="M45.25,26.82c-6.7,0-8.38,6.7-8.38,6.7h16.76s-1.68-6.7-8.38-6.7Z"/>
  </g>
</svg>