<?xml version="1.0" encoding="UTF-8"?>
<svg id="Capa_2" data-name="Capa 2" xmlns="http://www.w3.org/2000/svg" viewBox="0 0 69.05 60.43">
  <defs>
    <style>
      .cls-1 {
        stroke-width: 0px;
      }
    </style>
  </defs>
  <g id="Capa_1-2" data-name="Capa 1">
    <path class="cls-1" d="M66.18,37.41h-1.92c-.72,0-1.43.05-2.14.16l-20.27-15.2,4.86-4.65c1.15-1.1,1.19-2.92.09-4.07-1.1-1.15-2.93-1.19-4.07-.09l-12.01,11.49c-.6.6-1.41.91-2.27.83-.86-.07-1.61-.5-2.13-1.22-.79-1.09-.55-2.81.48-3.84l13.53-12.74c2.56-2.41,6.57-3,9.71-1.42l6.66,3.33c1.99.99,4.21,1.52,6.43,1.52h3.04c1.59,0,2.88-1.29,2.88-2.88s-1.29-2.88-2.88-2.88h-3.04c-1.33,0-2.67-.31-3.86-.91l-6.66-3.33c-5.25-2.63-11.95-1.65-16.23,2.38l-1.78,1.67-2.01-1.84c-2.64-2.41-6.07-3.73-9.75-3.73-2.22,0-4.43.52-6.41,1.51l-6.66,3.33c-1.19.6-2.53.91-3.86.91h-3.03C1.29,5.75,0,7.04,0,8.63s1.29,2.88,2.88,2.88h3.04c2.22,0,4.45-.53,6.43-1.52l6.66-3.33c2.94-1.48,7.07-1.08,9.71,1.33l1.69,1.54-7.61,7.17c-3.09,3.08-3.58,7.96-1.15,11.33,1.5,2.08,4.47,3.62,7.03,3.62,2.28,0,4.47-.9,6.05-2.48l2.89-2.77,18.26,13.69c-.09.06-17.83,13.37-17.83,13.37-2.08,1.62-4.98,1.62-7.11-.03l-17.52-13.14c-2.47-1.86-5.54-2.88-8.63-2.88h-1.92c-1.59,0-2.88,1.29-2.88,2.88s1.29,2.88,2.88,2.88h1.92c1.86,0,3.69.61,5.18,1.73l17.48,13.11c2.09,1.62,4.59,2.43,7.08,2.43s4.96-.8,7.01-2.4l17.53-13.14c1.48-1.11,3.32-1.73,5.18-1.73h1.92c1.59,0,2.88-1.29,2.88-2.88s-1.29-2.88-2.88-2.88h0Z"/>
  </g>
</svg>